<svg xmlns="http://www.w3.org/2000/svg" xmlns:xlink="http://www.w3.org/1999/xlink" preserveAspectRatio="xMidYMid" width="91.531" height="24.625" viewBox="0 0 91.531 24.625">
  <defs>
    <style>
      .cls-1 {
        fill: #3a405b;
        fill-rule: evenodd;
      }
    </style>
  </defs>
  <path d="M91.323,14.203 C91.112,14.538 90.838,14.929 90.504,15.378 C90.170,15.827 89.800,16.289 89.395,16.764 C88.990,17.239 88.564,17.706 88.115,18.163 C87.666,18.621 87.217,19.026 86.769,19.377 C86.320,19.730 85.888,20.015 85.475,20.235 C85.061,20.455 84.687,20.566 84.353,20.566 C84.106,20.566 83.873,20.495 83.653,20.354 C83.433,20.213 83.235,20.028 83.059,19.800 C82.883,19.571 82.747,19.316 82.650,19.034 C82.553,18.753 82.514,18.472 82.531,18.190 C82.549,18.066 82.575,17.856 82.611,17.556 C81.871,18.383 81.128,19.039 80.380,19.523 C79.631,20.006 78.914,20.249 78.228,20.249 C77.981,20.249 77.717,20.187 77.436,20.064 C77.154,19.941 76.903,19.738 76.684,19.457 C76.463,19.176 76.283,18.806 76.142,18.348 C76.054,18.059 76.004,17.726 75.985,17.360 C75.792,17.597 75.611,17.832 75.403,18.071 C74.998,18.537 74.576,18.959 74.136,19.338 C73.696,19.717 73.260,20.024 72.829,20.262 C72.398,20.500 71.988,20.618 71.602,20.618 C71.197,20.618 70.849,20.544 70.559,20.394 C70.268,20.244 70.035,20.046 69.859,19.800 C69.683,19.553 69.569,19.268 69.516,18.942 C69.463,18.617 69.481,18.269 69.569,17.899 C69.622,17.653 69.709,17.323 69.833,16.909 C69.956,16.496 70.084,16.047 70.216,15.563 C70.348,15.079 70.471,14.595 70.585,14.111 C70.699,13.627 70.774,13.187 70.810,12.791 C70.845,12.395 70.827,12.069 70.757,11.814 C70.686,11.559 70.537,11.431 70.308,11.431 C70.026,11.431 69.736,11.523 69.437,11.708 C69.137,11.893 68.834,12.144 68.526,12.461 C68.218,12.778 67.910,13.143 67.602,13.557 C67.294,13.970 66.990,14.397 66.691,14.837 C66.533,15.435 66.401,15.959 66.295,16.407 C66.189,16.856 66.097,17.261 66.018,17.622 C65.939,17.983 65.864,18.300 65.794,18.572 C65.723,18.845 65.661,19.105 65.609,19.351 C65.556,19.527 65.397,19.699 65.133,19.866 C64.870,20.033 64.588,20.170 64.289,20.275 C63.989,20.381 63.730,20.434 63.510,20.434 C63.290,20.434 63.198,20.354 63.233,20.196 C63.250,20.090 63.308,19.852 63.404,19.483 C63.501,19.113 63.615,18.678 63.747,18.177 C63.879,17.675 64.016,17.142 64.157,16.579 C64.159,16.569 64.161,16.560 64.164,16.550 C63.905,16.890 63.648,17.230 63.378,17.569 C62.964,18.089 62.559,18.564 62.163,18.995 C61.767,19.426 61.437,19.730 61.173,19.906 C60.997,20.011 60.795,20.099 60.566,20.170 C60.337,20.240 60.104,20.284 59.867,20.301 C59.629,20.319 59.405,20.305 59.193,20.262 C58.982,20.218 58.797,20.143 58.639,20.038 C58.481,19.914 58.349,19.738 58.243,19.510 C58.155,19.316 58.071,19.061 57.992,18.744 C57.913,18.427 57.882,18.031 57.900,17.556 C57.477,18.260 57.011,18.801 56.501,19.180 C55.990,19.558 55.506,19.835 55.049,20.011 C54.521,20.205 53.993,20.319 53.465,20.354 C53.218,20.354 52.954,20.271 52.672,20.104 C52.391,19.937 52.153,19.673 51.960,19.312 C51.766,18.951 51.643,18.484 51.590,17.912 C51.537,17.341 51.608,16.658 51.801,15.867 C52.048,14.793 52.439,13.816 52.976,12.936 C53.513,12.056 54.098,11.304 54.732,10.679 C55.365,10.054 55.990,9.583 56.606,9.266 C57.222,8.949 57.732,8.809 58.137,8.844 C58.613,8.932 59.000,9.073 59.299,9.266 C59.545,9.442 59.708,9.702 59.787,10.045 C59.867,10.388 59.721,10.841 59.352,11.404 C59.598,11.352 59.805,11.317 59.972,11.299 C60.139,11.282 60.267,11.273 60.355,11.273 C60.461,11.273 60.531,11.282 60.566,11.299 C60.584,11.334 60.593,11.409 60.593,11.523 C60.593,11.638 60.566,11.845 60.513,12.144 C60.461,12.443 60.381,12.848 60.276,13.358 C60.170,13.869 60.029,14.529 59.853,15.338 C59.818,15.497 59.787,15.642 59.761,15.774 C59.735,15.906 59.708,16.038 59.682,16.170 C59.655,16.302 59.624,16.456 59.589,16.632 C59.554,16.808 59.510,17.028 59.457,17.292 C59.440,17.450 59.435,17.622 59.444,17.807 C59.453,17.992 59.484,18.163 59.537,18.322 C59.589,18.480 59.673,18.608 59.787,18.704 C59.902,18.801 60.065,18.849 60.276,18.849 C60.452,18.849 60.680,18.740 60.962,18.520 C61.244,18.300 61.543,18.018 61.860,17.675 C62.177,17.331 62.507,16.953 62.850,16.540 C63.193,16.126 63.514,15.726 63.813,15.338 C64.113,14.951 64.381,14.608 64.619,14.309 C64.660,14.257 64.687,14.221 64.724,14.175 C64.763,13.995 64.802,13.815 64.843,13.622 C64.931,13.200 65.041,12.707 65.173,12.144 C65.305,11.581 65.459,10.965 65.635,10.296 C65.758,10.190 65.886,10.107 66.018,10.045 C66.150,9.984 66.286,9.936 66.427,9.900 C66.568,9.847 66.718,9.812 66.876,9.794 C67.017,9.794 67.157,9.804 67.298,9.821 C67.421,9.838 67.549,9.869 67.681,9.913 C67.813,9.957 67.932,10.023 68.038,10.111 C67.985,10.234 67.923,10.406 67.853,10.626 C67.782,10.846 67.712,11.079 67.642,11.325 C67.571,11.607 67.483,11.898 67.377,12.197 C67.606,11.880 67.866,11.559 68.156,11.233 C68.447,10.907 68.764,10.612 69.107,10.349 C69.450,10.085 69.815,9.869 70.202,9.702 C70.589,9.535 70.985,9.451 71.390,9.451 C71.724,9.451 72.024,9.548 72.288,9.741 C72.552,9.936 72.759,10.203 72.908,10.547 C73.058,10.890 73.146,11.299 73.172,11.774 C73.199,12.250 73.133,12.769 72.974,13.332 L72.684,14.493 C72.596,14.863 72.486,15.299 72.354,15.800 C72.222,16.302 72.059,16.852 71.866,17.450 C71.760,17.838 71.720,18.172 71.747,18.453 C71.773,18.736 71.945,18.876 72.262,18.876 C72.578,18.876 72.979,18.682 73.463,18.295 C73.947,17.908 74.435,17.441 74.928,16.896 C75.356,16.422 75.756,15.933 76.144,15.439 C76.248,14.870 76.386,14.314 76.591,13.780 C76.943,12.866 77.387,12.069 77.924,11.392 C78.461,10.714 79.068,10.177 79.746,9.781 C80.423,9.385 81.106,9.187 81.792,9.187 C82.091,9.187 82.364,9.262 82.611,9.412 C82.857,9.561 83.068,9.755 83.244,9.992 C83.420,10.230 83.565,10.490 83.680,10.771 C83.794,11.052 83.878,11.317 83.931,11.563 C84.054,11.052 84.168,10.552 84.274,10.058 C84.379,9.565 84.485,9.099 84.591,8.659 C84.766,8.008 84.951,7.304 85.145,6.547 C85.321,5.896 85.523,5.148 85.752,4.303 C85.981,3.458 86.236,2.570 86.518,1.636 C86.694,1.496 86.861,1.390 87.019,1.320 C87.178,1.250 87.327,1.197 87.468,1.162 C87.627,1.109 87.776,1.082 87.917,1.082 C88.093,1.082 88.251,1.104 88.392,1.148 C88.533,1.192 88.652,1.306 88.749,1.491 C88.845,1.676 88.911,1.953 88.947,2.323 C88.982,2.692 88.982,3.194 88.947,3.828 C88.911,4.602 88.775,5.447 88.537,6.362 C88.300,7.278 87.987,8.223 87.600,9.201 C87.213,10.177 86.769,11.154 86.267,12.131 C85.765,13.107 85.224,14.036 84.643,14.916 C84.555,15.462 84.472,15.981 84.393,16.473 C84.313,16.967 84.265,17.362 84.247,17.662 C84.230,18.101 84.309,18.418 84.485,18.612 C84.661,18.806 84.855,18.903 85.066,18.903 C85.312,18.903 85.616,18.779 85.977,18.532 C86.337,18.286 86.720,17.978 87.125,17.608 C87.530,17.239 87.934,16.835 88.339,16.395 C88.744,15.954 89.118,15.536 89.461,15.140 C89.805,14.744 90.095,14.397 90.333,14.097 C90.570,13.799 90.733,13.605 90.821,13.517 C90.927,13.411 91.036,13.350 91.151,13.332 C91.265,13.315 91.358,13.332 91.428,13.385 C91.498,13.437 91.534,13.534 91.534,13.675 C91.534,13.816 91.463,13.992 91.323,14.203 ZM58.586,11.748 C58.498,11.766 58.401,11.792 58.296,11.827 C58.207,11.863 58.093,11.889 57.953,11.906 C57.812,11.924 57.671,11.950 57.530,11.985 C57.671,11.704 57.755,11.471 57.781,11.286 C57.807,11.101 57.812,10.956 57.794,10.850 C57.776,10.727 57.741,10.630 57.689,10.560 C57.495,10.402 57.156,10.529 56.672,10.942 C56.188,11.356 55.629,12.117 54.996,13.226 C54.732,13.684 54.521,14.172 54.362,14.692 C54.204,15.211 54.094,15.699 54.032,16.156 C53.970,16.614 53.957,17.014 53.993,17.358 C54.028,17.701 54.098,17.925 54.204,18.031 C54.397,18.225 54.617,18.317 54.864,18.309 C55.110,18.300 55.361,18.229 55.616,18.097 C55.871,17.965 56.126,17.794 56.382,17.583 C56.637,17.371 56.866,17.151 57.068,16.922 C57.270,16.693 57.438,16.483 57.570,16.289 C57.702,16.095 57.776,15.954 57.794,15.867 C57.882,15.514 57.988,15.101 58.111,14.626 C58.234,14.151 58.339,13.693 58.428,13.253 C58.516,12.813 58.582,12.447 58.626,12.157 C58.670,11.867 58.656,11.731 58.586,11.748 ZM83.416,13.279 C83.389,13.297 83.358,13.315 83.323,13.332 C83.130,13.420 82.998,13.415 82.927,13.318 C82.857,13.222 82.822,13.068 82.822,12.856 C82.822,12.751 82.813,12.562 82.795,12.289 C82.778,12.016 82.729,11.735 82.650,11.444 C82.571,11.154 82.452,10.899 82.294,10.679 C82.135,10.458 81.915,10.349 81.634,10.349 C81.229,10.349 80.815,10.556 80.393,10.969 C79.970,11.383 79.575,11.885 79.205,12.474 C78.835,13.064 78.527,13.693 78.281,14.362 C78.034,15.031 77.894,15.629 77.858,16.156 C77.823,17.001 77.929,17.608 78.175,17.978 C78.422,18.348 78.756,18.532 79.178,18.532 C79.495,18.532 79.843,18.410 80.221,18.163 C80.600,17.917 80.969,17.618 81.330,17.265 C81.691,16.914 82.025,16.552 82.333,16.183 C82.641,15.813 82.892,15.506 83.086,15.259 C83.156,14.925 83.222,14.591 83.284,14.256 C83.345,13.921 83.420,13.578 83.508,13.226 C83.473,13.244 83.442,13.262 83.416,13.279 ZM51.828,4.065 C51.616,4.822 51.326,5.913 50.956,7.339 C50.640,8.553 50.213,10.208 49.676,12.302 C49.139,14.397 48.466,17.037 47.656,20.223 C47.568,20.310 47.463,20.371 47.340,20.407 C47.216,20.442 47.102,20.460 46.996,20.460 C46.873,20.460 46.741,20.451 46.600,20.434 C46.477,20.398 46.354,20.345 46.231,20.275 C46.125,20.205 46.020,20.113 45.914,19.998 C45.808,19.884 45.729,19.730 45.676,19.536 C45.926,18.484 46.159,17.507 46.377,16.590 C45.930,17.161 45.472,17.714 44.990,18.229 C44.356,18.907 43.740,19.466 43.142,19.906 C42.543,20.345 42.042,20.566 41.637,20.566 C41.056,20.566 40.572,20.451 40.185,20.223 C39.798,19.993 39.494,19.712 39.274,19.377 C39.054,19.044 38.900,18.678 38.812,18.282 C38.724,17.886 38.698,17.521 38.733,17.186 C38.749,16.922 38.806,16.451 38.901,15.790 C38.725,16.039 38.536,16.299 38.324,16.579 C37.963,17.054 37.562,17.543 37.123,18.044 C36.683,18.546 36.220,19.004 35.737,19.417 C35.252,19.831 34.769,20.170 34.285,20.434 C33.800,20.698 33.338,20.829 32.899,20.829 C32.441,20.829 32.062,20.741 31.763,20.566 C31.464,20.389 31.222,20.174 31.037,19.919 C30.853,19.664 30.721,19.382 30.641,19.074 C30.562,18.767 30.531,18.480 30.549,18.216 C30.566,18.005 30.624,17.780 30.721,17.543 C30.817,17.305 30.932,17.059 31.064,16.803 C31.196,16.548 31.336,16.293 31.486,16.038 C31.636,15.783 31.772,15.532 31.895,15.285 C32.194,14.775 32.437,14.340 32.621,13.979 C32.806,13.618 32.899,13.315 32.899,13.068 C32.899,12.910 32.863,12.769 32.793,12.645 C32.722,12.523 32.608,12.461 32.450,12.461 C32.344,12.461 32.269,12.465 32.225,12.474 C32.181,12.483 32.137,12.487 32.093,12.487 C32.049,12.487 31.988,12.492 31.909,12.501 C31.829,12.509 31.711,12.514 31.552,12.514 C31.323,12.514 31.130,12.478 30.971,12.408 C30.813,12.338 30.663,12.285 30.523,12.250 C30.452,12.373 30.294,12.637 30.047,13.041 C29.801,13.446 29.515,13.921 29.189,14.467 C28.863,15.013 28.520,15.585 28.160,16.183 C27.799,16.782 27.460,17.341 27.143,17.860 C26.826,18.379 26.558,18.819 26.338,19.180 C26.118,19.540 25.982,19.756 25.929,19.827 C25.806,20.020 25.669,20.147 25.520,20.209 C25.370,20.271 25.238,20.279 25.124,20.235 C25.009,20.191 24.935,20.099 24.899,19.959 C24.864,19.818 24.899,19.642 25.005,19.430 C25.058,19.325 25.177,19.087 25.361,18.718 C25.546,18.348 25.766,17.903 26.021,17.384 C26.277,16.865 26.554,16.302 26.853,15.694 C27.152,15.087 27.438,14.511 27.711,13.965 C27.808,13.771 27.899,13.593 27.990,13.414 C27.798,13.567 27.599,13.723 27.381,13.886 C26.888,14.256 26.351,14.617 25.770,14.969 C25.190,15.321 24.635,15.585 24.107,15.760 C23.931,16.430 23.693,17.054 23.394,17.635 C23.095,18.216 22.739,18.718 22.325,19.140 C21.911,19.562 21.445,19.892 20.926,20.130 C20.407,20.367 19.839,20.486 19.223,20.486 C18.501,20.486 17.934,20.332 17.520,20.024 C17.107,19.717 16.798,19.334 16.596,18.876 C16.394,18.418 16.271,17.917 16.227,17.371 C16.183,16.826 16.161,16.315 16.161,15.840 C16.161,15.506 16.200,15.136 16.280,14.731 C16.359,14.326 16.468,13.913 16.610,13.490 C16.750,13.068 16.930,12.645 17.151,12.223 C17.371,11.800 17.630,11.414 17.930,11.061 C18.035,10.762 18.198,10.498 18.418,10.269 C18.638,10.041 18.893,9.851 19.184,9.702 C19.474,9.553 19.786,9.438 20.121,9.359 C20.455,9.279 20.781,9.240 21.098,9.240 C21.150,9.240 21.199,9.248 21.243,9.266 C21.287,9.284 21.335,9.302 21.388,9.319 C21.617,9.337 21.903,9.424 22.246,9.583 C22.589,9.741 22.923,9.979 23.249,10.296 C23.575,10.612 23.852,11.013 24.081,11.497 C24.309,11.981 24.424,12.566 24.424,13.253 C24.424,13.394 24.415,13.565 24.398,13.768 C24.380,13.970 24.362,14.142 24.345,14.282 C24.750,14.124 25.172,13.930 25.612,13.702 C26.052,13.473 26.479,13.231 26.893,12.975 C27.306,12.720 27.689,12.461 28.041,12.197 C28.391,11.934 28.672,11.697 28.883,11.486 C28.739,11.354 28.627,11.246 28.569,11.180 C28.498,11.101 28.446,10.929 28.411,10.665 C28.375,10.437 28.428,10.137 28.569,9.768 C28.710,9.398 28.894,9.042 29.123,8.699 C29.352,8.355 29.607,8.061 29.889,7.814 C30.170,7.568 30.443,7.444 30.707,7.444 C31.200,7.444 31.548,7.603 31.750,7.920 C31.952,8.236 32.071,8.563 32.107,8.897 C32.142,9.126 32.124,9.416 32.054,9.768 C31.983,10.120 31.851,10.437 31.658,10.718 C31.711,10.754 31.781,10.794 31.869,10.837 C31.957,10.881 32.097,10.903 32.291,10.903 C32.573,10.903 32.771,10.886 32.885,10.850 C33.000,10.815 33.180,10.798 33.427,10.798 C33.726,10.798 33.972,10.872 34.166,11.022 C34.359,11.171 34.518,11.356 34.641,11.576 C34.764,11.796 34.856,12.034 34.918,12.289 C34.980,12.544 35.019,12.778 35.037,12.989 C35.090,13.428 34.975,13.886 34.694,14.362 C34.412,14.837 34.069,15.356 33.664,15.919 C33.418,16.271 33.171,16.668 32.925,17.107 C32.678,17.547 32.573,17.943 32.608,18.295 C32.643,18.524 32.705,18.709 32.793,18.849 C32.881,18.990 33.127,19.061 33.532,19.061 C33.831,19.061 34.161,18.951 34.522,18.731 C34.883,18.511 35.252,18.229 35.631,17.886 C36.009,17.543 36.383,17.164 36.753,16.751 C37.123,16.337 37.466,15.933 37.783,15.536 C38.099,15.140 38.368,14.784 38.588,14.467 C38.808,14.151 38.971,13.921 39.076,13.780 C39.127,13.699 39.190,13.636 39.259,13.584 C39.286,13.435 39.312,13.289 39.340,13.134 C39.516,12.175 39.714,11.145 39.934,10.045 C40.154,8.945 40.387,7.885 40.634,6.864 C40.334,6.899 40.035,6.935 39.736,6.970 C39.437,7.005 39.164,7.022 38.918,7.022 C38.354,7.022 37.822,6.956 37.321,6.825 C36.819,6.692 36.445,6.565 36.199,6.442 C36.058,6.372 35.997,6.269 36.014,6.138 C36.032,6.006 36.084,5.874 36.172,5.742 C36.261,5.610 36.370,5.496 36.502,5.398 C36.634,5.302 36.753,5.253 36.859,5.253 C37.193,5.289 37.554,5.319 37.941,5.346 C38.328,5.372 38.750,5.377 39.208,5.359 C39.542,5.342 39.864,5.315 40.172,5.279 C40.480,5.244 40.783,5.201 41.083,5.148 C41.311,4.303 41.536,3.568 41.756,2.943 C41.976,2.319 42.174,1.883 42.350,1.636 C42.403,1.549 42.522,1.474 42.706,1.412 C42.891,1.350 43.089,1.306 43.300,1.280 C43.512,1.254 43.714,1.254 43.908,1.280 C44.101,1.306 44.242,1.373 44.330,1.478 C44.418,1.619 44.453,1.980 44.436,2.560 C44.418,3.141 44.321,3.880 44.145,4.778 C44.884,4.778 45.540,4.818 46.112,4.897 C46.684,4.976 47.172,5.064 47.577,5.161 C47.982,5.258 48.307,5.355 48.554,5.451 C48.724,5.518 48.855,5.565 48.966,5.603 C49.061,5.183 49.135,4.855 49.188,4.619 C49.240,4.286 49.284,3.960 49.320,3.643 C49.355,3.362 49.372,3.071 49.372,2.772 C49.372,2.473 49.346,2.200 49.293,1.953 C49.434,1.866 49.588,1.795 49.755,1.742 C49.922,1.689 50.085,1.646 50.244,1.610 C50.437,1.557 50.631,1.514 50.824,1.478 C51.018,1.443 51.194,1.425 51.353,1.425 C51.493,1.425 51.625,1.439 51.748,1.465 C51.871,1.491 51.951,1.549 51.986,1.636 C52.092,1.725 52.140,1.901 52.131,2.164 C52.122,2.429 52.100,2.702 52.065,2.983 C51.995,3.318 51.916,3.679 51.828,4.065 ZM18.326,14.309 C18.220,14.678 18.132,15.040 18.062,15.391 C17.991,15.744 17.956,16.078 17.956,16.395 C17.956,16.711 17.973,17.024 18.009,17.331 C18.044,17.639 18.114,17.912 18.220,18.150 C18.326,18.387 18.466,18.582 18.642,18.731 C18.818,18.880 19.047,18.955 19.329,18.955 C19.646,18.955 19.936,18.880 20.200,18.731 C20.464,18.582 20.702,18.387 20.913,18.150 C21.124,17.912 21.313,17.639 21.480,17.331 C21.647,17.024 21.793,16.702 21.916,16.368 C21.793,16.386 21.674,16.398 21.560,16.407 C21.445,16.416 21.317,16.420 21.177,16.420 C20.508,16.420 19.931,16.223 19.448,15.827 C18.963,15.431 18.590,14.925 18.326,14.309 ZM22.576,12.645 C22.541,12.293 22.475,11.972 22.378,11.682 C22.281,11.392 22.158,11.154 22.008,10.969 C21.859,10.784 21.678,10.692 21.467,10.692 C21.133,10.692 20.811,10.784 20.504,10.969 C20.196,11.154 19.910,11.414 19.646,11.748 C19.593,11.906 19.566,12.074 19.566,12.250 C19.566,12.531 19.584,12.826 19.619,13.134 C19.654,13.442 19.742,13.719 19.883,13.965 C20.024,14.212 20.248,14.419 20.556,14.586 C20.864,14.753 21.291,14.837 21.837,14.837 C21.925,14.837 22.013,14.833 22.101,14.824 C22.189,14.815 22.277,14.802 22.365,14.784 C22.418,14.556 22.466,14.348 22.510,14.163 C22.554,13.979 22.576,13.816 22.576,13.675 C22.611,13.341 22.611,12.998 22.576,12.645 ZM48.448,6.837 C48.272,6.820 48.074,6.785 47.854,6.731 C47.634,6.679 47.370,6.635 47.062,6.600 C46.754,6.565 46.389,6.530 45.967,6.494 C45.544,6.459 45.051,6.442 44.488,6.442 C44.383,6.442 44.264,6.446 44.132,6.454 C44.000,6.464 43.863,6.468 43.723,6.468 C43.652,6.749 43.586,7.026 43.525,7.299 C43.463,7.573 43.380,7.859 43.274,8.157 C43.045,8.861 42.781,9.627 42.482,10.454 C42.218,11.176 41.901,12.004 41.532,12.936 C41.162,13.869 40.748,14.863 40.291,15.919 C40.185,16.676 40.198,17.252 40.330,17.648 C40.462,18.044 40.625,18.330 40.819,18.506 C41.047,18.700 41.329,18.806 41.664,18.823 C41.928,18.859 42.248,18.767 42.627,18.546 C43.005,18.326 43.397,18.031 43.802,17.662 C44.207,17.292 44.616,16.887 45.030,16.447 C45.443,16.008 45.826,15.576 46.178,15.154 C46.464,14.810 46.714,14.499 46.942,14.208 C47.163,13.279 47.361,12.441 47.538,11.695 C48.004,9.724 48.360,8.219 48.607,7.181 C48.634,7.062 48.660,6.949 48.685,6.837 C48.610,6.852 48.531,6.854 48.448,6.837 ZM15.738,9.213 C15.210,10.287 14.480,11.277 13.547,12.183 C12.614,13.090 11.479,13.860 10.141,14.493 C8.804,15.127 7.272,15.488 5.548,15.576 C5.407,16.245 5.266,16.931 5.125,17.635 C4.984,18.339 4.835,19.030 4.677,19.707 C4.518,20.385 4.355,21.019 4.188,21.608 C4.021,22.198 3.849,22.704 3.673,23.127 C3.497,23.584 3.268,23.949 2.987,24.222 C2.705,24.495 2.256,24.631 1.641,24.631 C1.324,24.631 1.029,24.552 0.756,24.394 C0.483,24.235 0.233,24.015 0.004,23.733 C0.074,23.681 0.184,23.592 0.334,23.470 C0.483,23.346 0.660,23.118 0.862,22.783 C1.064,22.449 1.289,21.964 1.535,21.331 C1.781,20.698 2.037,19.835 2.301,18.744 C2.441,18.163 2.626,17.424 2.855,16.526 C3.083,15.629 3.334,14.669 3.607,13.649 C3.880,12.628 4.157,11.576 4.439,10.494 C4.720,9.412 4.993,8.382 5.257,7.405 C5.521,6.428 5.759,5.544 5.970,4.752 C6.181,3.960 6.348,3.344 6.472,2.903 C6.137,3.114 5.812,3.353 5.495,3.616 C5.213,3.846 4.914,4.105 4.597,4.395 C4.281,4.686 3.972,4.990 3.673,5.306 C3.444,5.113 3.268,4.901 3.145,4.672 C3.075,4.567 3.013,4.453 2.961,4.329 C2.855,4.065 2.802,3.793 2.802,3.511 C2.802,3.230 3.022,2.939 3.462,2.640 C3.691,2.481 4.038,2.253 4.505,1.953 C4.971,1.654 5.548,1.359 6.234,1.069 C6.921,0.778 7.721,0.528 8.637,0.316 C9.552,0.105 10.564,-0.001 11.673,-0.001 C12.781,-0.001 13.675,0.220 14.352,0.660 C15.030,1.100 15.549,1.636 15.910,2.270 C16.270,2.903 16.504,3.572 16.610,4.277 C16.715,4.981 16.742,5.596 16.689,6.124 C16.583,7.111 16.266,8.140 15.738,9.213 ZM13.930,3.761 C13.745,3.172 13.477,2.697 13.125,2.336 C12.772,1.976 12.368,1.720 11.910,1.571 C11.452,1.421 10.995,1.346 10.537,1.346 C10.097,1.346 9.666,1.408 9.244,1.531 C8.821,1.654 8.399,1.812 7.977,2.006 C8.029,2.024 8.091,2.068 8.161,2.138 C8.267,2.244 8.346,2.393 8.399,2.587 C7.977,4.294 7.629,5.720 7.356,6.864 C7.083,8.008 6.868,8.940 6.709,9.663 C6.516,10.507 6.366,11.185 6.261,11.695 C6.208,11.977 6.142,12.342 6.063,12.791 C5.983,13.240 5.891,13.745 5.785,14.309 C6.261,14.238 6.789,14.111 7.369,13.926 C7.950,13.741 8.531,13.490 9.112,13.174 C9.693,12.856 10.260,12.474 10.815,12.025 C11.369,11.576 11.875,11.057 12.333,10.467 C12.790,9.878 13.173,9.209 13.481,8.461 C13.789,7.714 13.987,6.881 14.075,5.966 C14.163,5.086 14.115,4.352 13.930,3.761 Z" class="cls-1"/>
</svg>
